<svg width="246" height="218" viewBox="0 0 246 218" fill="none" xmlns="http://www.w3.org/2000/svg">
<line y1="-10" x2="161.146" y2="-4" transform="matrix(0.707407 0.706806 -0.517921 0.855428 13.1075 97.9498)" stroke="#E88C8C" stroke-width="20"/>
<line y1="-10" x2="161.146" y2="-4" transform="matrix(-0.707407 0.706806 0.517921 0.855428 242.108 98.9616)" stroke="#E88C8C" stroke-width="20"/>
<line y1="-10" x2="161.146" y2="-4" transform="matrix(0.707407 0.706806 -0.517921 0.855428 13.1075 19)" stroke="#E88C8C" stroke-width="20"/>
<line y1="-10" x2="161.146" y2="-4" transform="matrix(-0.707407 0.706806 0.517921 0.855428 242.108 20.0118)" stroke="#E88C8C" stroke-width="20"/>
<line y1="-7.5" x2="161.146" y2="-7.5" transform="matrix(0.707407 0.706806 -0.517921 0.855428 0 91.9498)" stroke="#342520" stroke-width="15"/>
<line y1="-7.5" x2="161.146" y2="-7.5" transform="matrix(-0.707407 0.706806 0.517921 0.855428 229 92.9616)" stroke="#342520" stroke-width="15"/>
<line y1="-7.5" x2="161.146" y2="-7.5" transform="matrix(0.707407 0.706806 -0.517921 0.855428 0 13)" stroke="#342520" stroke-width="15"/>
<line y1="-7.5" x2="161.146" y2="-7.5" transform="matrix(-0.707407 0.706806 0.517921 0.855428 229 14.0118)" stroke="#342520" stroke-width="15"/>
</svg>
