<svg width="295" height="262" viewBox="0 0 295 262" fill="none" xmlns="http://www.w3.org/2000/svg">
<path d="M260.543 124.293C254.154 120.76 249.733 120.69 242.807 118.381L188.119 137.595L219.158 187.849C223.957 191.354 226.949 193.016 232.46 195.239C240.125 198.331 244.94 198.755 253.153 199.674C262.331 200.7 267.584 200.239 276.802 199.674C282.592 199.319 291.582 198.195 291.582 198.195C291.582 198.195 292.416 187.335 291.582 180.459C290.723 173.371 290.762 168.057 288.626 161.244C285.837 152.346 283.575 148.228 278.28 140.552C272.945 132.817 268.766 128.84 260.543 124.293Z" fill="#C1E5B0" stroke="#75B884" stroke-width="6"/>
<path d="M34.7722 124.293C41.1617 120.76 45.5822 120.69 52.5088 118.381L107.197 137.595L76.1576 187.849C71.3582 191.354 68.3663 193.016 62.8551 195.239C55.1908 198.331 50.3756 198.755 42.1624 199.674C32.9842 200.7 27.7317 200.239 18.5136 199.674C12.7235 199.319 3.73311 198.195 3.73311 198.195C3.73311 198.195 2.89962 187.335 3.73311 180.459C4.59224 173.371 4.55381 168.057 6.68921 161.244C9.47824 152.346 11.7409 148.228 17.0356 140.552C22.3707 132.817 26.5491 128.84 34.7722 124.293Z" fill="#C1E5B0" stroke="#75B884" stroke-width="6"/>
<path d="M85.4695 152.029C88.3978 149.015 92.0366 145.115 95.6523 142.974C95.6523 142.974 86.5099 143.351 82.3595 142.694C77.2286 141.881 74.3051 141.018 69.6956 138.622C67.5838 137.525 66.4162 136.843 64.5196 135.405C60.8109 132.594 58.9485 130.555 56.4795 126.61C54.0878 122.788 53.2151 120.288 52.1586 115.905C51.5536 113.396 51.3416 111.946 51.154 109.372C50.7673 104.064 53.6402 94.3537 53.6402 94.3537C53.6402 94.3537 55.8901 88.1316 59.2977 84.044C60.9506 82.0612 61.9232 80.9544 63.9216 79.3204C67.7133 76.2201 69.101 74.8999 73.6716 73.1399C77.5559 71.6441 81.1734 70.8768 85.3311 70.6784L85.3606 70.677C88.2727 70.538 88.5316 70.5257 91.4119 71.081C95.9461 71.9552 99.9317 73.1159 104.076 75.1528C107.847 77.0064 111.19 78.9496 114.343 81.7266C114.343 81.7266 111.853 74.6404 111.196 70.4899C110.384 65.3589 110.301 62.3118 111.155 57.1876C111.547 54.84 111.834 53.5189 112.615 51.2708C114.143 46.875 115.507 44.4735 118.496 40.9064C121.391 37.4508 123.5 35.8481 127.341 33.4889C129.541 32.1381 130.854 31.4887 133.244 30.5147C138.173 28.5068 146.542 28.9958 146.542 28.9958C146.542 28.9958 154.909 28.4554 159.849 30.433C162.246 31.3923 163.599 31.9753 165.77 33.3709C169.891 36.019 171.575 36.9308 174.661 40.7339C177.284 43.9659 179.132 47.1692 180.605 51.062L180.616 51.0897C181.648 53.8163 181.74 54.0588 182.101 56.9697C182.671 61.5521 182.799 65.7013 182.142 70.2721C181.545 74.4316 180.781 79.0518 179.114 82.9094C179.114 82.9094 186.491 78.1405 190.235 76.233C194.864 73.8749 197.736 72.8548 202.874 72.0835C205.227 71.7301 206.573 71.5953 208.952 71.6436C213.605 71.7379 216.31 72.2933 220.626 74.0334C224.807 75.7191 226.983 77.2293 230.414 80.1539C232.379 81.8285 233.402 82.8764 235.067 84.849C238.5 88.9156 239.897 93.91 239.897 93.91L242.112 101.365C242.112 101.365 243.52 107.813 243.366 110.126C243.194 112.702 243.058 114.169 242.402 116.666C241.156 121.403 240.81 123.286 238.147 127.397C235.883 130.89 233.408 133.637 230.161 136.241L230.138 136.26C227.863 138.084 227.661 138.246 225.004 139.49C220.822 141.448 216.916 142.851 212.366 143.639L212.314 143.648C208.192 144.362 202.404 144.437 198.238 144.046C198.238 144.046 205.528 148.302 208.499 151.274C212.172 154.948 214.03 157.364 216.351 162.012C217.415 164.141 217.959 165.379 218.648 167.657C219.996 172.111 220.304 174.856 219.983 179.498C219.671 183.996 218.908 186.532 217.186 190.698C216.201 193.084 215.52 194.381 214.159 196.574C212.793 198.774 210.579 201.48 207.747 203.774C204.758 206.196 200.317 209.348 200.317 209.348C200.317 209.348 197.843 210.974 192.683 212.278C190.18 212.911 188.743 213.234 186.166 213.382C181.276 213.661 179.377 213.914 174.645 212.651C170.623 211.578 167.246 210.072 163.766 207.789L163.741 207.773C161.303 206.174 161.086 206.031 159.083 203.889C155.928 200.517 153.386 197.235 151.231 193.151C149.269 189.435 148.437 186.337 147.518 182.236C147.518 182.236 144.902 189.81 142.994 193.554C140.635 198.183 138.911 200.696 135.208 204.34C133.512 206.009 132.503 206.909 130.549 208.269C126.73 210.927 124.215 212.068 119.7 213.197C115.327 214.291 112.679 214.348 108.184 213.999C105.61 213.799 104.167 213.552 101.66 212.935C96.4927 211.663 90.0091 206.348 90.0091 206.348C90.0091 206.348 82.9229 201.867 80.0883 197.363C78.7133 195.179 77.9612 193.912 77.0248 191.506C75.248 186.942 74.4212 185.214 74.1597 180.323C73.9375 176.167 74.3256 172.489 75.4217 168.474L75.4295 168.445C76.1972 165.633 76.2654 165.383 77.6836 162.815C79.9162 158.773 82.2517 155.341 85.4695 152.029Z" fill="#FFD0DB" stroke="#E88C8C" stroke-width="6"/>
<path d="M148.84 126.616C150.741 115.392 151.343 108.975 151.563 97.5922C151.807 84.8827 150.3 77.7935 149.491 65.1075" stroke="#E88C8C" stroke-width="6"/>
<path d="M148.105 127.009C135.808 120.62 129.952 114.42 116.617 110.648C106.468 107.777 100.349 107.032 89.8077 107.383" stroke="#E88C8C" stroke-width="6"/>
<path d="M148.822 126.603C139.186 136.021 132.973 140.477 125.348 151.585C119.165 160.591 115.221 165.502 112.141 175.982" stroke="#E88C8C" stroke-width="6"/>
<path d="M148.748 126.745C156.923 136.129 162.537 140.584 169.682 150.776C176.399 160.357 179.672 166.175 184.375 176.889" stroke="#E88C8C" stroke-width="6"/>
<path d="M146.989 127.708C158.135 122.704 163.863 118.519 175.531 114.894C186.969 111.342 193.737 110.091 205.688 109.32" stroke="#E88C8C" stroke-width="6"/>
</svg>
