<svg width="297" height="262" viewBox="0 0 297 262" fill="none" xmlns="http://www.w3.org/2000/svg">
<path d="M261.543 124.293C255.154 120.76 250.733 120.69 243.807 118.381L189.119 137.595L220.158 187.849C224.957 191.354 227.949 193.016 233.46 195.239C241.125 198.331 245.94 198.755 254.153 199.674C263.331 200.7 268.584 200.239 277.802 199.674C283.592 199.319 292.582 198.195 292.582 198.195C292.582 198.195 293.416 187.335 292.582 180.459C291.723 173.371 291.762 168.057 289.626 161.244C286.837 152.346 284.575 148.228 279.28 140.552C273.945 132.817 269.766 128.84 261.543 124.293Z" fill="#C1E5B0" stroke="#75B884" stroke-width="8"/>
<path d="M35.7722 124.293C42.1617 120.76 46.5822 120.69 53.5088 118.381L108.197 137.595L77.1576 187.849C72.3582 191.354 69.3663 193.016 63.8551 195.239C56.1908 198.331 51.3756 198.755 43.1624 199.674C33.9842 200.7 28.7317 200.239 19.5136 199.674C13.7235 199.319 4.73311 198.195 4.73311 198.195C4.73311 198.195 3.89962 187.335 4.73311 180.459C5.59224 173.371 5.55381 168.057 7.68921 161.244C10.4782 152.346 12.7409 148.228 18.0356 140.552C23.3707 132.817 27.5491 128.84 35.7722 124.293Z" fill="#C1E5B0" stroke="#75B884" stroke-width="8"/>
<path d="M86.4695 152.029C89.3978 149.015 93.0366 145.115 96.6523 142.974C96.6523 142.974 87.5099 143.351 83.3595 142.694C78.2286 141.881 75.3051 141.018 70.6956 138.622C68.5838 137.525 67.4162 136.843 65.5196 135.405C61.8109 132.594 59.9485 130.555 57.4795 126.61C55.0878 122.788 54.2151 120.288 53.1586 115.905C52.5536 113.396 52.3416 111.946 52.154 109.372C51.7673 104.064 54.6402 94.3537 54.6402 94.3537C54.6402 94.3537 56.8901 88.1316 60.2977 84.044C61.9506 82.0612 62.9232 80.9544 64.9216 79.3204C68.7133 76.2201 70.101 74.8999 74.6716 73.1399C78.5559 71.6441 82.1734 70.8768 86.3311 70.6784L86.3606 70.677C89.2727 70.538 89.5316 70.5257 92.4119 71.081C96.9461 71.9552 100.932 73.1159 105.076 75.1528C108.847 77.0064 112.19 78.9496 115.343 81.7266C115.343 81.7266 112.853 74.6404 112.196 70.4899C111.384 65.3589 111.301 62.3118 112.155 57.1876C112.547 54.84 112.834 53.5189 113.615 51.2708C115.143 46.875 116.507 44.4735 119.496 40.9064C122.391 37.4508 124.5 35.8481 128.341 33.4889C130.541 32.1381 131.854 31.4887 134.244 30.5147C139.173 28.5068 147.542 28.9958 147.542 28.9958C147.542 28.9958 155.909 28.4554 160.849 30.433C163.246 31.3923 164.599 31.9753 166.77 33.3709C170.891 36.019 172.575 36.9308 175.661 40.7339C178.284 43.9659 180.132 47.1692 181.605 51.062L181.616 51.0897C182.648 53.8163 182.74 54.0588 183.101 56.9697C183.671 61.5521 183.799 65.7013 183.142 70.2721C182.545 74.4316 181.781 79.0518 180.114 82.9094C180.114 82.9094 187.491 78.1405 191.235 76.233C195.864 73.8749 198.736 72.8548 203.874 72.0835C206.227 71.7301 207.573 71.5953 209.952 71.6436C214.605 71.7379 217.31 72.2933 221.626 74.0334C225.807 75.7191 227.983 77.2293 231.414 80.1539C233.379 81.8285 234.402 82.8764 236.067 84.849C239.5 88.9156 240.897 93.91 240.897 93.91L243.112 101.365C243.112 101.365 244.52 107.813 244.366 110.126C244.194 112.702 244.058 114.169 243.402 116.666C242.156 121.403 241.81 123.286 239.147 127.397C236.883 130.89 234.408 133.637 231.161 136.241L231.138 136.26C228.863 138.084 228.661 138.246 226.004 139.49C221.822 141.448 217.916 142.851 213.366 143.639L213.314 143.648C209.192 144.362 203.404 144.437 199.238 144.046C199.238 144.046 206.528 148.302 209.499 151.274C213.172 154.948 215.03 157.364 217.351 162.012C218.415 164.141 218.959 165.379 219.648 167.657C220.996 172.111 221.304 174.856 220.983 179.498C220.671 183.996 219.908 186.532 218.186 190.698C217.201 193.084 216.52 194.381 215.159 196.574C213.793 198.774 211.579 201.48 208.747 203.774C205.758 206.196 201.317 209.348 201.317 209.348C201.317 209.348 198.843 210.974 193.683 212.278C191.18 212.911 189.743 213.234 187.166 213.382C182.276 213.661 180.377 213.914 175.645 212.651C171.623 211.578 168.246 210.072 164.766 207.789L164.741 207.773C162.303 206.174 162.086 206.031 160.083 203.889C156.928 200.517 154.386 197.235 152.231 193.151C150.269 189.435 149.437 186.337 148.518 182.236C148.518 182.236 145.902 189.81 143.994 193.554C141.635 198.183 139.911 200.696 136.208 204.34C134.512 206.009 133.503 206.909 131.549 208.269C127.73 210.927 125.215 212.068 120.7 213.197C116.327 214.291 113.679 214.348 109.184 213.999C106.61 213.799 105.167 213.552 102.66 212.935C97.4927 211.663 91.0091 206.348 91.0091 206.348C91.0091 206.348 83.9229 201.867 81.0883 197.363C79.7133 195.179 78.9612 193.912 78.0248 191.506C76.248 186.942 75.4212 185.214 75.1597 180.323C74.9375 176.167 75.3256 172.489 76.4217 168.474L76.4295 168.445C77.1972 165.633 77.2654 165.383 78.6836 162.815C80.9162 158.773 83.2517 155.341 86.4695 152.029Z" fill="#FFD0DB" stroke="#E88C8C" stroke-width="8"/>
<path d="M149.84 126.616C151.741 115.392 152.343 108.975 152.563 97.5922C152.807 84.8827 151.3 77.7935 150.491 65.1075" stroke="#E88C8C" stroke-width="8"/>
<path d="M149.105 127.009C136.808 120.62 130.952 114.42 117.617 110.648C107.468 107.777 101.349 107.032 90.8077 107.383" stroke="#E88C8C" stroke-width="8"/>
<path d="M149.822 126.603C140.186 136.021 133.973 140.477 126.348 151.585C120.165 160.591 116.221 165.502 113.141 175.982" stroke="#E88C8C" stroke-width="8"/>
<path d="M149.748 126.745C157.923 136.129 163.537 140.584 170.682 150.776C177.399 160.357 180.672 166.175 185.375 176.889" stroke="#E88C8C" stroke-width="8"/>
<path d="M147.989 127.708C159.135 122.704 164.863 118.519 176.531 114.894C187.969 111.342 194.737 110.091 206.688 109.32" stroke="#E88C8C" stroke-width="8"/>
</svg>
